<?xml version="1.0" encoding="utf-8"?>
<!-- Generator: Adobe Illustrator 23.0.0, SVG Export Plug-In . SVG Version: 6.00 Build 0)  -->
<svg version="1.1" id="Calque_1" xmlns="http://www.w3.org/2000/svg" xmlns:xlink="http://www.w3.org/1999/xlink" x="0px" y="0px"
	 viewBox="0 0 55.9 61.8" style="enable-background:new 0 0 55.9 61.8;" xml:space="preserve">
<style type="text/css">
	.st0{fill:#FFB03A;}
	.st1{fill:#E9A031;}
</style>
<title>Group</title>
<desc>Created with Sketch.</desc>
<g id="full-bell">
	<path class="st0" d="M49.4,40.1V25.7c0-10.2-7.1-18.7-16.5-20.9c-0.1-2.7-2.3-4.9-5-4.8c-2.6,0-4.8,2.2-4.8,4.8
		C13.5,7.1,6.5,15.6,6.5,25.7v14.4C2.9,40.1,0,43,0,46.6c0,0,0,0,0,0v4.6h55.9v-4.6C55.9,43,53,40.2,49.4,40.1
		C49.4,40.1,49.4,40.1,49.4,40.1z"/>
	<path id="bell-part" class="st1" d="M27.9,61.8c4.3,0,7.9-2.9,9-6.8h-18C20.1,58.9,23.6,61.8,27.9,61.8z"/>
</g>
</svg>
