<?xml version="1.0" encoding="utf-8"?>
<svg width="16px" height="16px" version="1.1" id="Calque_1" xmlns="http://www.w3.org/2000/svg" xmlns:xlink="http://www.w3.org/1999/xlink" x="0px" y="0px"
	 viewBox="0 0 10.8 12" style="enable-background:new 0 0 10.8 12;" xml:space="preserve">
<style type="text/css">
	.st0{fill:#FFB03A;}
	.st1{fill:#E9A031;}
</style>
<title>Logo Vector</title>
<desc>Created with Sketch.</desc>
<g id="full-bell">
	<path class="st0" d="M9.6,7.8V5c0-2-1.4-3.6-3.2-4.1c0-0.5-0.4-0.9-1-0.9s-0.9,0.5-1,0.9C2.6,1.4,1.3,3,1.3,5v2.8
		C0.5,7.8,0,8.3,0,9l0,0v0.9h10.8V9C10.8,8.3,10.3,7.8,9.6,7.8L9.6,7.8z"/>
	<path id="bell-part" class="st1" d="M5.4,12c0.8,0,1.5-0.5,1.7-1.3H3.7C3.9,11.4,4.6,12,5.4,12z"/>
</g>
</svg>
